<?xml version="1.0" standalone="no"?>
<!DOCTYPE svg PUBLIC "-//W3C//DTD SVG 20010904//EN"
 "http://www.w3.org/TR/2001/REC-SVG-20010904/DTD/svg10.dtd">
<svg version="1.0" xmlns="http://www.w3.org/2000/svg"
 width="500.000000pt" height="500.000000pt" viewBox="0 0 500.000000 500.000000"
 preserveAspectRatio="xMidYMid meet">

<g transform="translate(0.000000,500.000000) scale(0.100000,-0.100000)"
fill="#000000" stroke="none">
<path d="M1335 4987 c-101 -34 -182 -100 -224 -184 -45 -91 -44 -219 5 -315
20 -39 244 -269 995 -1019 l969 -969 -969 -969 c-751 -750 -975 -980 -995
-1019 -92 -181 -17 -392 169 -479 50 -23 73 -28 140 -28 69 0 89 4 146 31 62
30 139 104 1179 1145 826 827 1118 1125 1135 1160 49 95 49 223 0 318 -17 35
-309 333 -1135 1160 -1035 1036 -1117 1115 -1177 1143 -76 36 -174 46 -238 25z"/>
</g>
</svg>
